<svg xmlns="http://www.w3.org/2000/svg" viewBox="0 0 841.89 595.276" color-interpolation-filters="sRGB" fill="none" fill-rule="evenodd" font-size="12" overflow="visible" stroke-linecap="square" stroke-miterlimit="3"><style>.st2{stroke:#fff;stroke-linecap:round;stroke-linejoin:round;stroke-width:.5}.st3{fill:#fff;font-family:Segoe UI;font-size:.666664em}.st4{font-size:1em}.st10,.st11,.st12,.st8,.st9{fill:#393;stroke:none;stroke-linecap:round;stroke-linejoin:round;stroke-width:.5}.st10,.st11,.st12,.st9{fill:#bfbfbf}.st10,.st11,.st12{fill:#1ba1e2;stroke-width:.75}.st11,.st12{fill:#f09609;stroke-width:.5}.st12{fill:#d80073}</style><g id="shape1-1" transform="translate(418.11 -467.717)"><path d="M0 545.67v42.52a35.433 7.087-180 1070.87 0v-42.52a35.433 7.087-180 10-70.87 0z" fill="#d80073"/><path d="M0 545.67v42.52a35.433 7.087-180 1070.87 0v-42.52a35.433 7.087-180 10-70.87 0M0 545.67a35.433 7.087-180 1070.87 0M0 549.21a35.433 7.087-180 1070.87 0" class="st2"/><text x="6.39" y="570.36" class="st3">Local Repository <tspan x="10.25" dy="1.2em" class="st4">(.git Directory) </tspan><tspan x="22.77" dy="1.2em" class="st4">(HEAD)</tspan></text></g><g id="shape2-9" transform="translate(262.205 -467.717)"><path d="M0 545.67v42.52a35.433 7.087-180 1070.87 0v-42.52a35.433 7.087-180 10-70.87 0z" fill="#f09609"/><path d="M0 545.67v42.52a35.433 7.087-180 1070.87 0v-42.52a35.433 7.087-180 10-70.87 0M0 545.67a35.433 7.087-180 1070.87 0M0 549.21a35.433 7.087-180 1070.87 0" class="st2"/><text x="12.78" y="579.96" class="st3">Staging Area</text></g><g id="shape3-15" transform="translate(120.472 -467.717)"><path d="M0 545.67v42.52a35.433 7.087-180 1070.87 0v-42.52a35.433 7.087-180 10-70.87 0z" fill="#1ba1e2"/><path d="M0 545.67v42.52a35.433 7.087-180 1070.87 0v-42.52a35.433 7.087-180 10-70.87 0M0 545.67a35.433 7.087-180 1070.87 0M0 549.21a35.433 7.087-180 1070.87 0" class="st2"/><text x="8.75" y="579.96" class="st3">Work Directory</text></g><g id="shape4-21" transform="translate(660.174 -467.717)"><path d="M0 547.09v39.68a42.52 8.504-180 1085.04 0v-39.68a42.52 8.504-180 10-85.04 0z" fill="#393"/><path d="M0 547.09v39.68a42.52 8.504-180 1085.04 0v-39.68a42.52 8.504-180 10-85.04 0M0 547.09a42.52 8.504-180 0085.04 0M0 551.34a42.52 8.504-180 0085.04 0" class="st2"/><text x="8.83" y="582.08" class="st3">Remote Repository</text></g><g id="shape6-27" transform="rotate(-90 247.174 263.062)"><path class="st8" d="M0 586.772h461.749v8.504H0z"/></g><g id="shape7-29" transform="rotate(-90 37.559 472.677)"><path class="st9" d="M0 586.772h382.677v8.504H0z"/></g><g id="shape8-31" transform="rotate(-90 186.378 323.858)"><path class="st9" d="M0 586.772h382.677v8.504H0z"/></g><g id="shape9-33" transform="rotate(-90 108.425 401.811)"><path class="st9" d="M0 586.772h382.677v8.504H0z"/></g><g id="shape17-35" transform="translate(160.157 -435.402)"><path d="M0 573.8v14.32h126.07v7.16l7.16-14.32-7.16-14.31v7.15H0z" class="st10"/><text x="54.09" y="583.36" class="st3">git add</text></g><g id="shape22-38" transform="translate(160.157 -201.685)"><path d="M7.02 574.23v-7.02L0 581.24l7.02 14.04v-7.02h119.19v7.02l7.02-14.04-7.02-14.03v7.02H7.02z" class="st11"/><text x="55.01" y="583.64" class="st3">git diff</text></g><g id="shape23-41" transform="translate(301.89 -201.685)"><path d="M7.02 574.23v-7.02L0 581.24l7.02 14.04v-7.02h133.37v7.02l7.01-14.04-7.01-14.03v7.02H7.02z" class="st11"/><text x="45.36" y="583.64" class="st3">git diff --cached</text></g><g id="shape24-44" transform="translate(301.89 -345.969)"><path d="M0 574.65v13.75h140.53v6.88l6.87-13.75-6.87-13.75v6.87H0z" class="st10"/><text x="54.52" y="583.93" class="st3">git commit</text></g><g id="shape25-47" transform="translate(160.157 -309.827)"><path d="M0 574.44v13.89h282.19v6.95l6.94-13.89-6.94-13.89v6.94H0z" class="st10"/><text x="120.65" y="583.79" class="st3">git commit -a</text></g><g id="shape26-50" transform="translate(240.945 -182.835)"><path class="st8" d="M0 579.685h113.386v15.591H0z"/><text x="39.67" y="589.88" class="st3">git ls-files</text></g><g id="shape31-53" transform="translate(240.945 -396.85)"><path class="st8" d="M0 579.685h113.386v15.591H0z"/><text x="29.35" y="589.88" class="st3">git rm --cached</text></g><g id="shape40-56" transform="translate(160.157 -417.118)"><path d="M7.3 573.38v-7.3L0 580.68l7.3 14.6v-7.3h118.63v7.3l7.3-14.6-7.3-14.6v7.3H7.3z" class="st11"/><text x="49.08" y="583.08" class="st3">git rm/mv</text></g><g id="shape42-59" transform="translate(240.945 -374.173)"><path class="st8" d="M0 579.685h113.386v15.591H0z"/><text x="30.95" y="589.88" class="st3">git reset HEAD</text></g><g id="shape47-62" transform="rotate(180 224.645 417.26)"><path d="M0 573.8v14.32h281.98v7.16l7.15-14.32-7.15-14.31v7.15H0z" class="st12"/><text x="-182.49" y="-578.56" transform="rotate(180)" class="st3">git checkout -- &lt;file&gt;</text></g><g id="shape48-65" transform="rotate(180 349.221 453.26)"><path d="M0 573.8v14.32h531.13v7.16l7.15-14.32-7.15-14.31v7.15H0z" class="st12"/><text x="-284.43" y="-578.56" transform="rotate(180)" class="st3">git clone</text></g><g id="shape50-68" transform="translate(457.795 -273.827)"><path d="M0 574.44v13.89h233.7v6.95l6.95-13.89-6.95-13.89v6.94H0z" class="st10"/><text x="105.97" y="583.79" class="st3">git push</text></g><g id="shape51-71" transform="rotate(180 349.221 435.26)"><path d="M0 573.8v14.32h233.49v7.16l7.16-14.32-7.16-14.31v7.15H0z" class="st12"/><text x="-134.91" y="-578.56" transform="rotate(180)" class="st3">git fetch</text></g><g id="shape53-74" transform="translate(160.157 -237.118)"><path d="M7.3 573.38v-7.3L0 580.68l7.3 14.6v-7.3h523.69v7.3l7.29-14.6-7.29-14.6v7.3H7.3z" class="st11"/><text x="256.81" y="583.08" class="st3">git pull</text></g><g id="shape54-77" transform="rotate(-90 310.953 199.283)"><path class="st9" d="M0 586.772h382.677v8.504H0z"/></g></svg>